<svg xmlns="http://www.w3.org/2000/svg" xmlns:xlink="http://www.w3.org/1999/xlink" width="500" zoomAndPan="magnify" viewBox="0 0 375 374.999991" height="500" preserveAspectRatio="xMidYMid meet" version="1.0"><defs><g/><clipPath id="878a9f0051"><path d="M 61 152.007812 L 129.910156 152.007812 L 129.910156 170 L 61 170 Z M 61 152.007812 " clip-rule="nonzero"/></clipPath><clipPath id="5eda2f44b0"><path d="M 80 172 L 129.910156 172 L 129.910156 189 L 80 189 Z M 80 172 " clip-rule="nonzero"/></clipPath><clipPath id="c5d009fc9b"><path d="M 46.660156 184 L 129.910156 184 L 129.910156 203 L 46.660156 203 Z M 46.660156 184 " clip-rule="nonzero"/></clipPath><clipPath id="d7288977fe"><path d="M 65 205 L 129.910156 205 L 129.910156 223.257812 L 65 223.257812 Z M 65 205 " clip-rule="nonzero"/></clipPath></defs><g clip-path="url(#878a9f0051)"><path fill="#0075ae" d="M 69.378906 167.628906 C 73.292969 167.628906 76.515625 164.707031 77.039062 160.910156 L 90.265625 160.910156 L 95.925781 169.113281 C 96.140625 169.417969 96.445312 169.546875 96.792969 169.546875 L 128.867188 169.546875 C 129.433594 169.546875 129.910156 169.070312 129.910156 168.5 C 129.910156 167.933594 129.433594 167.453125 128.867188 167.453125 L 97.316406 167.453125 L 91.660156 159.253906 C 91.441406 158.945312 91.136719 158.816406 90.789062 158.816406 L 76.992188 158.816406 C 76.472656 155.019531 73.25 152.097656 69.335938 152.097656 C 65.070312 152.097656 61.589844 155.585938 61.589844 159.863281 C 61.589844 164.136719 65.113281 167.628906 69.378906 167.628906 Z M 69.378906 154.234375 C 72.46875 154.234375 74.992188 156.765625 74.992188 159.863281 C 74.992188 162.960938 72.46875 165.492188 69.378906 165.492188 C 66.289062 165.492188 63.765625 162.960938 63.765625 159.863281 C 63.765625 156.765625 66.246094 154.234375 69.378906 154.234375 Z M 69.378906 154.234375 " fill-opacity="1" fill-rule="nonzero"/></g><g clip-path="url(#5eda2f44b0)"><path fill="#0075ae" d="M 128.867188 179.582031 L 95.488281 179.582031 C 94.964844 175.785156 91.746094 172.863281 87.828125 172.863281 C 83.566406 172.863281 80.082031 176.355469 80.082031 180.628906 C 80.082031 184.90625 83.566406 188.394531 87.828125 188.394531 C 91.746094 188.394531 94.964844 185.472656 95.488281 181.675781 L 128.867188 181.675781 C 129.433594 181.675781 129.910156 181.195312 129.910156 180.628906 C 129.910156 180.0625 129.433594 179.582031 128.867188 179.582031 Z M 87.828125 186.300781 C 84.738281 186.300781 82.214844 183.769531 82.214844 180.671875 C 82.214844 177.574219 84.738281 175 87.828125 175 C 90.917969 175 93.445312 177.53125 93.445312 180.628906 C 93.445312 183.769531 90.917969 186.300781 87.828125 186.300781 Z M 87.828125 186.300781 " fill-opacity="1" fill-rule="nonzero"/></g><g clip-path="url(#c5d009fc9b)"><path fill="#0075ae" d="M 128.867188 193.019531 L 99.753906 193.019531 C 99.40625 193.019531 99.058594 193.195312 98.839844 193.5 L 94.75 200.042969 L 76.820312 200.042969 L 72.382812 191.753906 C 72.207031 191.40625 71.859375 191.1875 71.46875 191.1875 L 62.066406 191.1875 C 61.542969 187.390625 58.324219 184.46875 54.40625 184.46875 C 50.144531 184.46875 46.660156 187.960938 46.660156 192.234375 C 46.660156 196.511719 50.144531 200 54.40625 200 C 58.324219 200 61.542969 197.078125 62.066406 193.28125 L 70.8125 193.28125 L 75.253906 201.570312 C 75.425781 201.921875 75.773438 202.136719 76.167969 202.136719 L 95.316406 202.136719 C 95.664062 202.136719 96.011719 201.964844 96.230469 201.660156 L 100.320312 195.113281 L 128.824219 195.113281 C 129.390625 195.113281 129.867188 194.632812 129.867188 194.066406 C 129.910156 193.5 129.433594 193.019531 128.867188 193.019531 Z M 54.40625 197.949219 C 51.316406 197.949219 48.792969 195.417969 48.792969 192.320312 C 48.792969 189.222656 51.316406 186.695312 54.40625 186.695312 C 57.496094 186.695312 60.023438 189.222656 60.023438 192.320312 C 60.066406 195.417969 57.542969 197.949219 54.40625 197.949219 Z M 54.40625 197.949219 " fill-opacity="1" fill-rule="nonzero"/></g><g clip-path="url(#d7288977fe)"><path fill="#0075ae" d="M 128.867188 205.367188 L 112.070312 205.367188 C 111.675781 205.367188 111.328125 205.585938 111.15625 205.890625 L 106.195312 214.355469 L 80.867188 214.355469 C 80.34375 210.558594 77.125 207.636719 73.207031 207.636719 C 68.941406 207.636719 65.460938 211.125 65.460938 215.402344 C 65.460938 219.675781 68.941406 223.167969 73.207031 223.167969 C 77.125 223.167969 80.34375 220.242188 80.867188 216.449219 L 106.804688 216.449219 C 107.195312 216.449219 107.542969 216.230469 107.71875 215.925781 L 112.679688 207.460938 L 128.867188 207.460938 C 129.433594 207.460938 129.910156 206.980469 129.910156 206.414062 C 129.910156 205.847656 129.433594 205.367188 128.867188 205.367188 Z M 73.207031 221.074219 C 70.117188 221.074219 67.59375 218.542969 67.59375 215.445312 C 67.59375 212.347656 70.117188 209.816406 73.207031 209.816406 C 76.296875 209.816406 78.820312 212.347656 78.820312 215.445312 C 78.863281 218.542969 76.339844 221.074219 73.207031 221.074219 Z M 73.207031 221.074219 " fill-opacity="1" fill-rule="nonzero"/></g><g fill="#28292a" fill-opacity="1"><g transform="translate(137.811324, 192.533894)"><g><path d="M 2.390625 0 L 2.390625 -18.90625 L 4.953125 -18.90625 L 4.953125 0 Z M 2.390625 0 "/></g></g></g><g fill="#28292a" fill-opacity="1"><g transform="translate(145.128379, 192.533894)"><g><path d="M 9.984375 -17.140625 C 8.753906 -17.140625 7.671875 -16.835938 6.734375 -16.234375 C 5.804688 -15.628906 5.082031 -14.757812 4.5625 -13.625 C 4.050781 -12.488281 3.796875 -11.160156 3.796875 -9.640625 C 3.796875 -7.023438 4.328125 -5.054688 5.390625 -3.734375 C 6.453125 -2.421875 8 -1.765625 10.03125 -1.765625 C 11.394531 -1.765625 12.566406 -2.222656 13.546875 -3.140625 C 14.535156 -4.066406 15.171875 -5.335938 15.453125 -6.953125 L 17.921875 -6.953125 C 17.710938 -5.410156 17.226562 -4.078125 16.46875 -2.953125 C 15.71875 -1.828125 14.757812 -0.96875 13.59375 -0.375 C 12.425781 0.207031 11.132812 0.5 9.71875 0.5 C 8.007812 0.5 6.507812 0.101562 5.21875 -0.6875 C 3.9375 -1.476562 2.9375 -2.625 2.21875 -4.125 C 1.507812 -5.632812 1.15625 -7.4375 1.15625 -9.53125 C 1.15625 -11.5 1.515625 -13.226562 2.234375 -14.71875 C 2.953125 -16.207031 3.976562 -17.359375 5.3125 -18.171875 C 6.644531 -18.992188 8.203125 -19.40625 9.984375 -19.40625 C 11.367188 -19.40625 12.617188 -19.148438 13.734375 -18.640625 C 14.847656 -18.128906 15.753906 -17.410156 16.453125 -16.484375 C 17.160156 -15.554688 17.59375 -14.46875 17.75 -13.21875 L 15.265625 -13.21875 C 15.003906 -14.476562 14.414062 -15.445312 13.5 -16.125 C 12.59375 -16.800781 11.421875 -17.140625 9.984375 -17.140625 Z M 9.984375 -17.140625 "/></g></g></g><g fill="#28292a" fill-opacity="1"><g transform="translate(164.131658, 192.533894)"><g><path d="M 4.8125 -16.640625 L 4.8125 -10.84375 L 15.171875 -10.84375 L 15.171875 -8.578125 L 4.8125 -8.578125 L 4.8125 -2.265625 L 16.21875 -2.265625 L 16.21875 0 L 2.265625 0 L 2.265625 -18.90625 L 16.03125 -18.90625 L 16.03125 -16.640625 Z M 4.8125 -16.640625 "/></g></g></g><g fill="#28292a" fill-opacity="1"><g transform="translate(181.687317, 192.533894)"><g><path d="M 17.75 -9.765625 C 17.75 -7.910156 17.441406 -6.238281 16.828125 -4.75 C 16.210938 -3.269531 15.3125 -2.109375 14.125 -1.265625 C 12.9375 -0.421875 11.503906 0 9.828125 0 L 2.125 0 L 2.125 -18.90625 L 9.84375 -18.90625 C 11.332031 -18.90625 12.675781 -18.546875 13.875 -17.828125 C 15.070312 -17.117188 16.015625 -16.078125 16.703125 -14.703125 C 17.398438 -13.328125 17.75 -11.679688 17.75 -9.765625 Z M 9.71875 -2.1875 C 10.769531 -2.1875 11.703125 -2.460938 12.515625 -3.015625 C 13.335938 -3.566406 13.972656 -4.394531 14.421875 -5.5 C 14.878906 -6.601562 15.109375 -7.957031 15.109375 -9.5625 C 15.109375 -11.925781 14.601562 -13.707031 13.59375 -14.90625 C 12.582031 -16.113281 11.210938 -16.71875 9.484375 -16.71875 L 4.6875 -16.71875 L 4.6875 -2.1875 Z M 9.71875 -2.1875 "/></g></g></g><g fill="#28292a" fill-opacity="1"><g transform="translate(200.690597, 192.533894)"><g><path d="M 4.8125 -16.640625 L 4.8125 -10.84375 L 15.171875 -10.84375 L 15.171875 -8.578125 L 4.8125 -8.578125 L 4.8125 -2.265625 L 16.21875 -2.265625 L 16.21875 0 L 2.265625 0 L 2.265625 -18.90625 L 16.03125 -18.90625 L 16.03125 -16.640625 Z M 4.8125 -16.640625 "/></g></g></g><g fill="#28292a" fill-opacity="1"><g transform="translate(218.246256, 192.533894)"><g><path d="M 14.53125 -3.640625 L 14.53125 -18.90625 L 17.015625 -18.90625 L 17.015625 0 L 14.140625 0 L 4.53125 -15.265625 L 4.46875 -15.265625 L 4.46875 0 L 2 0 L 2 -18.90625 L 5.03125 -18.90625 L 14.484375 -3.640625 Z M 14.53125 -3.640625 "/></g></g></g><g fill="#28292a" fill-opacity="1"><g transform="translate(167.764447, 210.148637)"><g><path d="M 9.953125 -7.1875 L 8.59375 -7.1875 C 8.425781 -7.875 8.078125 -8.40625 7.546875 -8.78125 C 7.023438 -9.164062 6.34375 -9.359375 5.5 -9.359375 C 4.851562 -9.359375 4.269531 -9.179688 3.75 -8.828125 C 3.238281 -8.484375 2.835938 -7.992188 2.546875 -7.359375 C 2.265625 -6.722656 2.125 -5.992188 2.125 -5.171875 C 2.125 -3.785156 2.414062 -2.726562 3 -2 C 3.582031 -1.28125 4.421875 -0.921875 5.515625 -0.921875 C 6.515625 -0.921875 7.3125 -1.203125 7.90625 -1.765625 C 8.507812 -2.328125 8.8125 -3.144531 8.8125 -4.21875 L 8.8125 -4.328125 L 5.59375 -4.328125 L 5.59375 -5.515625 L 10.125 -5.515625 L 10.125 0 L 9.21875 0 L 8.890625 -1.34375 C 8.535156 -0.84375 8.050781 -0.445312 7.4375 -0.15625 C 6.832031 0.125 6.175781 0.265625 5.46875 0.265625 C 4.445312 0.265625 3.578125 0.0351562 2.859375 -0.421875 C 2.148438 -0.878906 1.609375 -1.507812 1.234375 -2.3125 C 0.867188 -3.125 0.6875 -4.046875 0.6875 -5.078125 C 0.6875 -6.148438 0.882812 -7.101562 1.28125 -7.9375 C 1.6875 -8.769531 2.257812 -9.421875 3 -9.890625 C 3.738281 -10.359375 4.597656 -10.59375 5.578125 -10.59375 C 6.304688 -10.59375 6.988281 -10.453125 7.625 -10.171875 C 8.257812 -9.890625 8.785156 -9.488281 9.203125 -8.96875 C 9.617188 -8.445312 9.867188 -7.851562 9.953125 -7.1875 Z M 9.953125 -7.1875 "/></g></g></g><g fill="#28292a" fill-opacity="1"><g transform="translate(178.942097, 210.148637)"><g><path d="M 2.625 -9.078125 L 2.625 -5.921875 L 8.28125 -5.921875 L 8.28125 -4.6875 L 2.625 -4.6875 L 2.625 -1.234375 L 8.859375 -1.234375 L 8.859375 0 L 1.234375 0 L 1.234375 -10.328125 L 8.75 -10.328125 L 8.75 -9.078125 Z M 2.625 -9.078125 "/></g></g></g><g fill="#28292a" fill-opacity="1"><g transform="translate(188.52499, 210.148637)"><g><path d="M 2.625 -9.078125 L 2.625 -5.921875 L 8.28125 -5.921875 L 8.28125 -4.6875 L 2.625 -4.6875 L 2.625 -1.234375 L 8.859375 -1.234375 L 8.859375 0 L 1.234375 0 L 1.234375 -10.328125 L 8.75 -10.328125 L 8.75 -9.078125 Z M 2.625 -9.078125 "/></g></g></g><g fill="#28292a" fill-opacity="1"><g transform="translate(198.107883, 210.148637)"><g><path d="M 7.484375 -10.328125 L 9.421875 -10.328125 L 5.125 -6.15625 L 9.53125 0 L 7.71875 0 L 4.109375 -5.171875 L 2.484375 -3.625 L 2.484375 0 L 1.09375 0 L 1.09375 -10.328125 L 2.484375 -10.328125 L 2.484375 -5.3125 Z M 7.484375 -10.328125 "/></g></g></g></svg>